<?xml version="1.0" standalone="no"?>
<!DOCTYPE svg PUBLIC "-//W3C//DTD SVG 20010904//EN"
 "http://www.w3.org/TR/2001/REC-SVG-20010904/DTD/svg10.dtd">
<svg version="1.0" xmlns="http://www.w3.org/2000/svg"
 width="500.000000pt" height="500.000000pt" viewBox="0 0 500.000000 500.000000"
 preserveAspectRatio="xMidYMid meet">
<metadata>
Created by potrace 1.16, written by Peter Selinger 2001-2019
</metadata>
<g transform="translate(0.000000,500.000000) scale(0.100000,-0.100000)"
fill="#000000" stroke="none">
<path d="M1959 4826 c-32 -68 -83 -121 -167 -172 -289 -178 -448 -295 -508
-377 -30 -40 -52 -87 -70 -146 -25 -80 -31 -90 -94 -151 l-66 -65 25 70 c23
62 25 85 26 210 0 77 -6 185 -14 240 -26 188 -44 189 -66 4 -22 -173 -42 -238
-139 -452 -103 -226 -118 -274 -115 -371 3 -76 0 -86 -51 -146 l-22 -25 8 25
c11 40 17 570 6 570 -16 0 -28 -22 -60 -113 -39 -109 -76 -253 -97 -377 -20
-119 -30 -406 -17 -484 5 -32 6 -71 2 -85 l-7 -26 -6 25 c-3 14 -10 58 -16 98
-6 40 -25 108 -41 151 -46 119 -185 319 -207 298 -3 -4 -1 -42 5 -85 7 -42 19
-158 27 -257 17 -192 33 -288 65 -381 21 -59 92 -188 110 -199 6 -4 10 -59 10
-128 0 -538 203 -1045 575 -1436 513 -539 1250 -761 1977 -595 58 13 146 37
195 54 48 16 89 30 90 30 2 0 3 7 3 15 0 20 -4 19 -91 -10 -310 -106 -681
-136 -999 -81 -438 76 -796 259 -1110 567 -356 351 -564 805 -601 1315 -10
140 -4 343 10 354 3 3 19 24 35 48 16 24 87 95 158 159 241 218 328 360 328
534 0 102 -17 114 -55 39 -34 -66 -96 -142 -231 -281 -61 -63 -131 -144 -154
-180 -38 -58 -41 -61 -35 -29 20 97 121 364 161 427 18 28 109 74 274 139 149
58 257 127 388 249 132 124 126 142 -30 91 -177 -58 -288 -115 -438 -225 -41
-30 -70 -48 -64 -40 6 8 39 52 73 98 165 227 195 239 616 251 265 7 284 8 361
33 87 29 177 83 237 142 32 32 51 73 30 63 -5 -1 -39 -19 -78 -38 l-70 -35
-270 -6 c-243 -6 -423 -21 -449 -36 -5 -3 -6 -1 -2 5 16 26 230 159 351 218
709 346 1554 255 2169 -234 400 -318 659 -758 751 -1272 26 -147 31 -437 11
-596 -28 -216 -89 -423 -187 -633 -53 -113 -56 -121 -35 -121 19 0 121 220
167 362 21 65 51 176 66 246 26 121 28 140 28 407 0 256 -2 290 -24 395 -88
429 -310 830 -619 1121 -310 291 -678 470 -1117 545 -127 22 -459 25 -595 5
-117 -16 -327 -69 -440 -111 -118 -43 -309 -139 -409 -205 -46 -30 -77 -47
-68 -37 9 9 52 40 97 67 321 199 411 276 482 410 36 70 71 181 62 197 -11 17
-25 6 -45 -36z m-51 -158 c-59 -108 -182 -211 -442 -369 -49 -30 -120 -83
-159 -119 l-69 -64 16 39 c30 72 65 122 113 165 70 61 220 167 363 255 68 42
140 89 160 105 19 16 36 29 38 30 2 0 -7 -19 -20 -42z m-838 -458 c1 -109 -3
-147 -20 -200 -28 -90 -82 -187 -170 -308 l-75 -102 -3 39 c-4 52 30 152 117
338 83 179 108 249 124 350 10 62 13 70 19 46 5 -15 8 -89 8 -163z m980 -106
c0 -3 -28 -18 -62 -34 -120 -56 -161 -62 -463 -70 -184 -5 -291 -11 -313 -20
-48 -18 -50 -6 -4 25 101 67 214 84 582 89 132 2 244 6 247 10 8 7 13 8 13 0z
m-1365 -444 c-6 -150 -28 -273 -77 -429 -31 -100 -33 -103 -40 -70 -5 19 -6
81 -2 139 10 195 35 346 82 505 l27 90 8 -50 c4 -27 5 -111 2 -185z m670 143
c-130 -121 -204 -166 -392 -239 -63 -24 -129 -51 -146 -60 l-32 -16 30 32 c33
35 167 141 231 182 93 60 312 157 354 157 8 0 -12 -25 -45 -56z m-952 -511
c69 -132 80 -184 85 -409 2 -114 0 -208 -5 -218 -8 -13 -16 -5 -42 44 -68 128
-92 236 -116 521 -9 102 -18 194 -21 205 -9 31 60 -67 99 -143z m608 71 c-25
-133 -103 -247 -278 -408 -65 -59 -133 -124 -150 -143 -18 -19 -33 -33 -33
-30 0 25 55 158 82 201 18 28 96 118 173 198 77 81 156 172 175 201 19 30 36
51 38 47 2 -4 -2 -34 -7 -66z"/>
<path d="M1979 3342 c-14 -9 -92 -73 -173 -141 -116 -99 -148 -132 -157 -160
-6 -22 -9 -104 -7 -204 l3 -169 28 -24 c27 -23 32 -24 207 -24 l180 0 2 -581
3 -581 28 -24 c28 -24 30 -24 253 -24 153 0 232 4 247 12 33 17 313 255 331
280 14 20 16 80 16 470 l0 448 28 0 c15 0 39 8 52 17 57 39 320 265 330 283 6
11 10 96 10 200 l0 182 -29 29 -29 29 -649 0 c-600 0 -650 -1 -674 -18z m1338
-25 c16 -16 18 -38 18 -202 0 -163 -2 -186 -18 -202 -15 -16 -41 -18 -207 -21
l-190 -4 -2 -583 c-3 -547 -4 -585 -21 -602 -16 -16 -39 -18 -250 -15 -192 2
-234 5 -247 17 -13 14 -15 92 -18 599 l-3 583 -184 7 c-101 3 -191 9 -200 12
-25 10 -30 49 -30 225 0 176 4 193 48 202 12 3 306 4 654 3 593 -1 633 -2 650
-19z"/>
<path d="M2170 3120 c0 -6 85 -10 235 -10 l235 0 0 -610 c0 -400 3 -610 10
-610 7 0 10 210 10 610 l0 610 235 0 c150 0 235 4 235 10 0 7 -167 10 -480 10
-313 0 -480 -3 -480 -10z"/>
</g>
</svg>
